<?xml version="1.0" standalone="no"?>
<!DOCTYPE svg PUBLIC "-//W3C//DTD SVG 20010904//EN"
 "http://www.w3.org/TR/2001/REC-SVG-20010904/DTD/svg10.dtd">
<svg version="1.0" xmlns="http://www.w3.org/2000/svg"
 width="199.000000pt" height="213.000000pt" viewBox="0 0 199.000000 213.000000"
 preserveAspectRatio="xMidYMid meet">
<metadata>
Created by potrace 1.10, written by Peter Selinger 2001-2011
</metadata>
<g transform="translate(0.000000,213.000000) scale(0.050000,-0.050000)"
fill="#d3b305" stroke="none">
<path d="M2118 3845 c-9 -60 14 -143 71 -260 61 -125 105 -180 241 -299 127
-112 57 -260 -347 -728 -187 -217 -188 -218 -249 -340 -120 -241 -67 -393 204
-577 62 -42 183 -101 269 -132 l155 -55 68 66 c82 80 78 92 -40 105 -50 6
-149 39 -219 73 -405 199 -398 560 19 999 174 183 295 347 333 455 30 82 48
83 180 16 602 -304 325 -983 -343 -841 -73 16 -200 -59 -200 -117 0 -77 450
-47 533 36 7 8 26 14 41 14 15 0 75 30 132 68 531 344 396 868 -273 1062 -319
92 -551 287 -518 435 5 22 -4 35 -24 35 -17 0 -32 -7 -33 -15z"/>
<path d="M1880 3376 c0 -84 -180 -229 -344 -277 -243 -70 -380 -124 -501 -196
-615 -364 -492 -1094 218 -1292 94 -27 167 74 154 215 -16 180 66 340 308 602
146 159 181 211 231 346 45 120 72 216 76 260 3 36 -40 22 -108 -36 -56 -48
-74 -78 -74 -126 -1 -137 -119 -327 -376 -599 -151 -160 -223 -281 -224 -377
0 -93 -35 -82 -179 60 -424 417 -291 808 342 1001 257 78 380 164 505 351 62
93 64 112 12 112 -28 0 -40 -13 -40 -44z"/>
<path d="M1612 1811 c9 -38 -8 -80 -70 -173 -113 -169 -107 -263 22 -330 146
-76 347 16 342 156 -3 74 -58 216 -83 216 -41 0 -64 -102 -33 -146 67 -95 28
-189 -81 -197 -184 -12 -189 75 -15 265 108 118 95 258 -24 258 -65 0 -70 -4
-58 -49z"/>
<path d="M1450 1070 c-239 -36 -568 -134 -712 -211 -50 -27 88 -270 140 -247
556 240 1211 256 1768 44 86 -33 160 -57 164 -53 63 65 144 217 124 233 -220
181 -1015 306 -1484 234z"/>
<path d="M1470 648 c-33 -5 -122 -23 -197 -41 l-137 -32 13 -93 c7 -50 18
-121 24 -157 l12 -66 642 6 643 5 25 139 c29 162 31 159 -125 202 -117 32
-753 58 -900 37z"/>
</g>
</svg>
